<svg width="136" height="51" viewBox="0 0 136 51" fill="none" xmlns="http://www.w3.org/2000/svg">
<path d="M44.625 35.0625C44.625 35.87 44.1787 36.5712 43.4987 36.9325L26.7113 46.3675C26.3713 46.6225 25.9463 46.75 25.5 46.75C25.0538 46.75 24.6288 46.6225 24.2888 46.3675L7.50125 36.9325C7.16057 36.7535 6.87546 36.4845 6.67691 36.1548C6.47835 35.8251 6.37393 35.4474 6.375 35.0625V15.9375C6.375 15.13 6.82125 14.4288 7.50125 14.0675L24.2888 4.6325C24.6288 4.3775 25.0538 4.25 25.5 4.25C25.9463 4.25 26.3713 4.3775 26.7113 4.6325L43.4987 14.0675C44.1787 14.4288 44.625 15.13 44.625 15.9375V35.0625Z" fill="#3C3C3C"/>
<path d="M36.3764 21.9844H30.777C30.6747 21.2599 30.4659 20.6165 30.1506 20.054C29.8352 19.483 29.4304 18.9972 28.9361 18.5966C28.4418 18.196 27.8707 17.8892 27.223 17.6761C26.5838 17.4631 25.8892 17.3565 25.1392 17.3565C23.7841 17.3565 22.6037 17.6932 21.598 18.3665C20.5923 19.0312 19.8125 20.0028 19.2585 21.2812C18.7045 22.5511 18.4276 24.0937 18.4276 25.9091C18.4276 27.7756 18.7045 29.3437 19.2585 30.6136C19.821 31.8835 20.6051 32.8423 21.6108 33.4901C22.6165 34.1378 23.7798 34.4616 25.1009 34.4616C25.8423 34.4616 26.5284 34.3636 27.1591 34.1676C27.7983 33.9716 28.3651 33.6861 28.8594 33.3111C29.3537 32.9276 29.7628 32.4631 30.0866 31.9176C30.419 31.3722 30.6491 30.75 30.777 30.0511L36.3764 30.0767C36.2315 31.2784 35.8693 32.4375 35.2898 33.554C34.7188 34.6619 33.9474 35.6548 32.9759 36.5327C32.0128 37.402 30.8622 38.0923 29.5241 38.6037C28.1946 39.1065 26.6903 39.358 25.0114 39.358C22.6761 39.358 20.5881 38.8295 18.7472 37.7727C16.9148 36.7159 15.4659 35.1861 14.4006 33.1832C13.3438 31.1804 12.8153 28.7557 12.8153 25.9091C12.8153 23.054 13.3523 20.625 14.4261 18.6222C15.5 16.6193 16.9574 15.0937 18.7983 14.0455C20.6392 12.9886 22.7102 12.4602 25.0114 12.4602C26.5284 12.4602 27.9347 12.6733 29.2301 13.0994C30.5341 13.5256 31.6889 14.1477 32.6946 14.9659C33.7003 15.7756 34.5185 16.7685 35.1491 17.9446C35.7884 19.1207 36.1974 20.4673 36.3764 21.9844Z" fill="white"/>
<path d="M48.6779 12.8182H55.5046L62.7148 30.4091H63.0217L70.2319 12.8182H77.0586V39H71.6893V21.9588H71.4719L64.6964 38.8722H61.0401L54.2646 21.8949H54.0472V39H48.6779V12.8182ZM81.6193 12.8182H88.446L95.6562 30.4091H95.9631L103.173 12.8182H110V39H104.631V21.9588H104.413L97.6378 38.8722H93.9815L87.206 21.8949H86.9886V39H81.6193V12.8182ZM128.764 20.348C128.662 19.3168 128.223 18.5156 127.447 17.9446C126.672 17.3736 125.619 17.0881 124.289 17.0881C123.386 17.0881 122.623 17.2159 122.001 17.4716C121.379 17.7188 120.902 18.0639 120.569 18.5071C120.245 18.9503 120.083 19.4531 120.083 20.0156C120.066 20.4844 120.164 20.8935 120.377 21.2429C120.599 21.5923 120.902 21.8949 121.285 22.1506C121.669 22.3977 122.112 22.6151 122.615 22.8026C123.118 22.9815 123.654 23.1349 124.225 23.2628L126.578 23.8253C127.72 24.081 128.768 24.4219 129.723 24.848C130.677 25.2741 131.504 25.7983 132.203 26.4205C132.902 27.0426 133.443 27.7756 133.826 28.6193C134.218 29.4631 134.419 30.4304 134.427 31.5213C134.419 33.1236 134.01 34.5128 133.2 35.6889C132.399 36.8565 131.24 37.7642 129.723 38.4119C128.214 39.0511 126.395 39.3707 124.264 39.3707C122.15 39.3707 120.309 39.0469 118.741 38.3991C117.181 37.7514 115.963 36.7926 115.085 35.5227C114.216 34.2443 113.76 32.6634 113.717 30.7798H119.074C119.133 31.6577 119.385 32.3906 119.828 32.9787C120.279 33.5582 120.88 33.9972 121.63 34.2955C122.389 34.5852 123.245 34.7301 124.2 34.7301C125.137 34.7301 125.951 34.5937 126.642 34.321C127.341 34.0483 127.882 33.669 128.265 33.1832C128.649 32.6974 128.841 32.1392 128.841 31.5085C128.841 30.9205 128.666 30.4261 128.316 30.0256C127.975 29.625 127.473 29.2841 126.808 29.0028C126.152 28.7216 125.346 28.4659 124.392 28.2358L121.541 27.5199C119.333 26.983 117.591 26.1435 116.312 25.0014C115.034 23.8594 114.399 22.321 114.407 20.3864C114.399 18.8011 114.821 17.4162 115.673 16.2315C116.534 15.0469 117.714 14.1222 119.214 13.4574C120.714 12.7926 122.419 12.4602 124.328 12.4602C126.271 12.4602 127.967 12.7926 129.416 13.4574C130.873 14.1222 132.007 15.0469 132.816 16.2315C133.626 17.4162 134.044 18.7884 134.069 20.348H128.764Z" fill="#595959"/>
</svg>
